<svg width="40" height="38" viewBox="0 0 40 38" fill="none" xmlns="http://www.w3.org/2000/svg">
<path d="M7.60986 32.0528C7.39362 32.3775 6.95103 32.4679 6.62144 32.2548C6.28802 32.0394 5.96889 31.803 5.6665 31.547L4.77365 30.7938C4.4737 30.5413 4.43848 30.097 4.69517 29.8019C4.95152 29.5064 5.40248 29.4716 5.70208 29.7245L6.59494 30.4788C6.85128 30.6952 7.12123 30.8955 7.40374 31.0783C7.73403 31.291 7.82645 31.7278 7.60986 32.0528ZM13.4521 32.259C13.0103 32.3328 12.5631 32.3703 12.115 32.3703H11.7857C11.0086 32.3703 10.2354 32.2583 9.49149 32.0373C9.11342 31.9257 8.71512 32.1366 8.60142 32.5088C8.48772 32.8812 8.70222 33.274 9.07994 33.3856C9.9578 33.6454 10.8691 33.7777 11.7857 33.7777H12.115C12.643 33.7777 13.17 33.7337 13.6907 33.6468C14.0796 33.5818 14.3415 33.2187 14.2756 32.8355C14.2097 32.4521 13.841 32.1944 13.4521 32.259ZM34.2972 29.7259L33.4044 30.4801C33.148 30.6966 32.8777 30.8969 32.5956 31.0797C32.266 31.2934 32.1746 31.7302 32.3915 32.0549C32.6085 32.3799 33.0518 32.4699 33.3813 32.2562C33.7148 32.0422 34.0336 31.8071 34.3363 31.5525L35.2291 30.799C35.5291 30.5464 35.5643 30.1022 35.308 29.8067C35.0513 29.5115 34.6007 29.4768 34.3007 29.7294L34.2972 29.7259ZM30.5113 32.0387C29.7663 32.2597 28.9924 32.3713 28.2143 32.3703H27.885C27.4369 32.37 26.9897 32.3328 26.5479 32.259C26.159 32.1944 25.7903 32.4521 25.7244 32.8355C25.6585 33.2187 25.9204 33.5818 26.3093 33.6468C26.83 33.7337 27.357 33.7777 27.885 33.7777H28.2143C29.1309 33.7777 30.0422 33.6454 30.9201 33.3856C31.2978 33.274 31.5123 32.8812 31.3986 32.5088C31.2849 32.1366 30.8866 31.9257 30.5085 32.0373L30.5113 32.0387ZM36.8963 25.5044C37.0546 25.6381 37.1456 25.8332 37.1456 26.0384C37.1456 26.2438 37.0546 26.4387 36.8963 26.5727L34.3394 28.7329C32.6325 30.1712 30.4604 30.9619 28.2143 30.9629H27.8857C26.9162 30.9636 25.9521 30.8158 25.0286 30.5251C24.4803 33.4506 22.839 36.0675 20.4286 37.859C20.1747 38.047 19.8253 38.047 19.5714 37.859C17.1596 36.0678 15.5176 33.4506 14.9686 30.5245C14.0451 30.8158 13.0811 30.9636 12.1115 30.9629H11.7857C9.54067 30.9608 7.37026 30.1699 5.66441 28.7322L3.10652 26.5709C2.94817 26.4373 2.85714 26.2425 2.85714 26.037C2.85714 25.8315 2.94817 25.6367 3.10652 25.503L5.66371 23.3424C6.54157 22.6037 7.55057 22.0312 8.64014 21.6536C7.96143 20.5094 7.50244 19.2522 7.28585 17.9444L6.1213 10.6682C6.08608 10.4459 6.16071 10.2205 6.32185 10.0614C6.48333 9.90234 6.71247 9.82881 6.93778 9.86386L12.0536 10.659L13.6886 6.77107C13.7762 6.56319 13.9589 6.40926 14.1807 6.35668C14.4026 6.30239 14.6373 6.35771 14.8106 6.50443L16.5834 7.98846L19.3799 3.16666C19.5176 2.96153 19.7503 2.83783 20 2.83783C20.2497 2.83783 20.4824 2.96153 20.6201 3.16666L23.4148 7.98193L25.188 6.49791C25.362 6.35256 25.5961 6.29758 25.8179 6.3505C26.0397 6.40341 26.2228 6.55769 26.31 6.76523L27.9656 10.7126L33.4602 9.85801C33.6858 9.8209 33.9157 9.89444 34.0765 10.0552C34.2379 10.2143 34.3126 10.4401 34.277 10.6624L33.1114 17.9389C32.8899 19.2955 32.4048 20.5974 31.6828 21.7732C32.6475 22.1494 33.5428 22.6796 34.3328 23.3424L36.8963 25.5044ZM26.2999 12.3986C21.9109 13.0814 18.5864 16.6659 18.2907 21.0338L18.2642 21.4334C18.1871 22.5697 18.6115 23.6833 19.4287 24.4887C19.7301 24.7863 20.0774 25.0347 20.4579 25.225C20.4677 25.2285 20.4757 25.2326 20.4851 25.2367C21.1175 25.548 21.8234 25.6862 22.5286 25.6367L22.9342 25.6099C25.8834 25.4085 28.5725 23.876 30.2201 21.4581C30.9835 20.3325 31.4886 19.0567 31.6999 17.7193L32.7141 11.4001L26.2999 12.3986ZM24.1364 9.2275L24.6059 10.037C24.82 10.4013 25.0206 10.7912 25.2187 11.1902C25.5043 11.1197 25.79 11.0538 26.0756 11.0094L26.5137 10.939L25.3634 8.19462L24.1364 9.2275ZM16.227 11.4795C17.7208 11.9846 19.0789 12.8164 20.1998 13.9122C20.6658 13.4586 21.1726 13.0477 21.7142 12.6848C22.3797 12.2495 23.0915 11.887 23.8372 11.6042C23.6851 11.3056 23.5292 11.0149 23.3657 10.7342L20 4.93657L16.6343 10.7363C16.5001 10.9778 16.3623 11.2235 16.227 11.4815V11.4795ZM13.5066 10.8792L14.3192 11.006C14.4835 11.029 14.6509 11.0579 14.8263 11.094C15.0136 10.7273 15.2005 10.3741 15.392 10.0384L15.8636 9.22475L14.6341 8.19806L13.5066 10.8792ZM8.69873 17.7207C8.91288 19.0567 9.4179 20.3311 10.1793 21.4567L10.3223 21.6543C11.1115 22.7655 12.1383 23.6926 13.3308 24.3705C14.1274 24.8213 14.986 25.156 15.88 25.3642C16.3979 25.4913 16.9266 25.5728 17.4592 25.6071L17.8728 25.636C18.1044 25.6466 18.3367 25.6387 18.5672 25.6119C18.5184 25.5676 18.4671 25.5274 18.4208 25.481C17.3113 24.3894 16.7355 22.8789 16.8408 21.3375L16.867 20.9379C17.0253 18.7519 17.8533 16.6648 19.2414 14.9523C18.0769 13.8077 16.6232 12.9903 15.0307 12.5842C14.7248 12.5058 14.4148 12.4433 14.1023 12.3966L7.68729 11.4001L8.69873 17.7207ZM15.255 28.9222C16.1897 28.5309 17.0386 27.9653 17.755 27.2564L17.9694 27.0455C17.907 27.0455 17.8442 27.0455 17.7815 27.0396L17.3692 27.0108C16.7554 26.9709 16.1468 26.8764 15.55 26.7293C13.133 26.1744 10.9867 24.8093 9.47859 22.8676C8.41971 23.1772 7.43827 23.7008 6.59633 24.4052L4.66867 26.037L6.59703 27.6639C8.04339 28.8824 9.88281 29.5531 11.7857 29.5555H12.1143C13.1941 29.5565 14.2627 29.3411 15.255 28.9222ZM23.6778 29.9778C22.7752 29.5366 21.9514 28.9545 21.2378 28.2536L20 27.0321L18.7622 28.2515C18.049 28.9531 17.2248 29.5362 16.3222 29.9778C16.7181 32.4864 18.0249 34.7683 20 36.3991C21.9751 34.7683 23.2819 32.4864 23.6778 29.9778ZM35.3313 26.037L33.4065 24.41C32.6496 23.7795 31.7808 23.2919 30.8444 22.9724C28.9258 25.334 26.0934 26.7991 23.0308 27.0138L22.6249 27.0403C22.5042 27.0482 22.3828 27.0516 22.2621 27.0516C22.1844 27.0516 22.1066 27.0441 22.0285 27.0403L22.2478 27.2564C22.9632 27.9646 23.8107 28.5302 24.7437 28.9222C25.7366 29.3411 26.8059 29.5565 27.8864 29.5555H28.215C30.1193 29.5538 31.9608 28.8827 33.4079 27.6633L35.3313 26.037ZM0 26.7407H1.42857V25.3333H0V26.7407ZM5.71429 7.74072H4.28571V9.14813H5.71429V7.74072ZM20.7143 1.4074V0H19.2857V1.4074H20.7143ZM35.7143 7.74072H34.2857V9.14813H35.7143V7.74072ZM38.5714 26.7407H40V25.3333H38.5714V26.7407Z" fill="url(#paint0_linear_3_7)"/>
<defs>
<linearGradient id="paint0_linear_3_7" x1="6.25" y1="32.8981" x2="33.3395" y2="5.40114" gradientUnits="userSpaceOnUse">
<stop stop-color="#7C7AA2"/>
<stop offset="1" stop-color="#D4C1DE"/>
</linearGradient>
</defs>
</svg>
